<?xml version="1.0" encoding="UTF-8" ?>
<!DOCTYPE svg PUBLIC "-//W3C//DTD SVG 1.1//EN" "http://www.w3.org/Graphics/SVG/1.1/DTD/svg11.dtd">
<svg width="40pt" height="40pt" viewBox="0 0 40 40" version="1.1" xmlns="http://www.w3.org/2000/svg">
<g id="#403f3fff">
</g>
<g id="#f9f9f9ff">
<path fill="#f9f9f9" opacity="1.00" d=" M 10.00 11.00 C 16.67 11.00 23.33 11.00 30.00 11.00 C 30.00 16.67 30.00 22.33 30.00 28.00 C 27.71 28.00 25.42 28.00 23.13 28.01 C 22.09 29.06 21.04 30.11 20.00 31.17 C 18.96 30.11 17.91 29.06 16.87 28.01 C 14.58 28.00 12.29 28.00 10.00 28.00 C 10.00 22.33 10.00 16.67 10.00 11.00 M 11.00 12.00 C 11.00 17.00 11.00 22.00 11.00 27.00 C 13.24 27.00 15.48 27.00 17.72 27.00 C 18.48 27.79 19.24 28.58 20.00 29.36 C 20.76 28.58 21.52 27.79 22.28 27.00 C 24.52 27.00 26.76 27.00 29.00 27.00 C 29.00 22.00 29.00 17.00 29.00 12.00 C 23.00 12.01 17.00 12.00 11.00 12.00 Z" />
</g>
</svg>
